<?xml version="1.0" encoding="utf-8"?>
<!-- Generator: Adobe Illustrator 24.1.1, SVG Export Plug-In . SVG Version: 6.00 Build 0)  -->
<svg version="1.1" id="Layer_1" xmlns="http://www.w3.org/2000/svg" xmlns:xlink="http://www.w3.org/1999/xlink" x="0px" y="0px"
	 viewBox="0 0 512 512" fill="none" xml:space="preserve">
<g>
	<path d="M481.1,0H28.5C15,5.6,4.5,16.9,0,30.8v446.5C6.5,497.5,25.3,512,47.6,512H462c27.6,0,50-22.5,50-50.1V46.3
		C512,25.4,499.2,7.5,481.1,0z M383.1,187.6h-10c-3.7,0-8,4.9-8,8.3v124c0,3.4,4.3,8.6,8,8.6h10v28.8h-89.3v-28.8h17.9V198.2h-0.9
		l-44.1,159.1h-34.1l-43.5-159.1h-0.9v130.3H207v28.8h-75.6v-28.8h9.7c4,0,8.3-5.1,8.3-8.6v-124c0-3.4-4.3-8.3-8.3-8.3h-9.7v-29.9
		h94.4l31,115.7h0.9l31.3-115.7h94.1V187.6z" fill="white"/>
</g>
</svg>
